<svg width="125" height="28" viewBox="0 0 125 28" fill="none" xmlns="http://www.w3.org/2000/svg">
<path d="M5.38259 10.6133H0.819929V3.71623H5.38259V4.37218H1.56269V9.95734H5.38259V10.6133ZM5.19931 7.41074H1.46623V6.75479H5.19931V7.41074ZM6.7672 10.6133H5.92798L7.79935 8.15349L6.10161 5.86734H6.93119L8.26237 7.73871L9.59354 5.86734H10.4135L8.72538 8.15349L10.5968 10.6133H9.74788L8.26237 8.59722L6.7672 10.6133ZM14.9113 9.37856L15.4226 9.85123C15.2039 10.1342 14.9274 10.3593 14.593 10.5265C14.265 10.6872 13.892 10.7676 13.474 10.7676C12.9917 10.7676 12.5609 10.6583 12.1814 10.4396C11.8085 10.221 11.5126 9.92197 11.294 9.54255C11.0818 9.16313 10.9757 8.72905 10.9757 8.24031C10.9757 7.75157 11.0818 7.31749 11.294 6.93807C11.5126 6.55865 11.8117 6.25962 12.1911 6.04097C12.5705 5.82232 13.0014 5.713 13.4837 5.713C13.9017 5.713 14.2747 5.7966 14.6026 5.9638C14.9306 6.12457 15.2039 6.34644 15.4226 6.62939L14.9113 7.10206C14.757 6.87055 14.5641 6.68727 14.3326 6.55222C14.101 6.41074 13.8181 6.34001 13.4837 6.34001C13.1364 6.34001 12.831 6.42039 12.5673 6.58116C12.3036 6.74193 12.0978 6.96701 11.9499 7.2564C11.802 7.53935 11.7281 7.86732 11.7281 8.24031C11.7281 8.6133 11.802 8.94448 11.9499 9.23387C12.0978 9.51683 12.3036 9.73869 12.5673 9.89946C12.831 10.0602 13.1364 10.1406 13.4837 10.1406C13.8181 10.1406 14.101 10.0731 14.3326 9.93805C14.5641 9.79657 14.757 9.61007 14.9113 9.37856ZM20.2784 9.26281L20.78 9.73548C20.5292 10.057 20.2269 10.311 19.8733 10.4975C19.5196 10.6776 19.1144 10.7676 18.6578 10.7676C18.1562 10.7676 17.7061 10.6583 17.3074 10.4396C16.9151 10.221 16.6064 9.92197 16.3813 9.54255C16.1562 9.16313 16.0437 8.72905 16.0437 8.24031C16.0437 7.75157 16.1498 7.31749 16.362 6.93807C16.5807 6.55865 16.8797 6.25962 17.2591 6.04097C17.6385 5.82232 18.0694 5.713 18.5517 5.713C19.0147 5.713 19.4231 5.82232 19.7768 6.04097C20.1369 6.25319 20.4199 6.54579 20.6257 6.91878C20.8314 7.29177 20.9343 7.72263 20.9343 8.21137V8.26925H20.2012V8.21137C20.2012 7.83838 20.1273 7.51363 19.9794 7.2371C19.8379 6.95415 19.6417 6.7355 19.3909 6.58116C19.1466 6.42039 18.8668 6.34001 18.5517 6.34001C18.2045 6.34001 17.899 6.42039 17.6353 6.58116C17.3717 6.74193 17.1659 6.96379 17.018 7.24675C16.8701 7.52971 16.7961 7.85768 16.7961 8.23066C16.7961 8.60365 16.8765 8.93484 17.0373 9.22423C17.198 9.51361 17.4167 9.73869 17.6932 9.89946C17.9762 10.0602 18.3009 10.1406 18.6675 10.1406C19.3363 10.1406 19.8733 9.84801 20.2784 9.26281ZM20.9343 8.49111H16.6418V7.90269H20.78L20.9343 8.21137V8.49111ZM22.7728 10.6133H22.0589V3.668H22.7728V10.6133ZM 24.614 10.6133 H 23.9001 V 3.668 H 24.614 V 10.6133 ZM 29.976 9.26281 L 30.4776 9.73548 C 30.2268 10.057 29.9245 10.311 29.5708 10.4975 C 29.2171 10.6776 28.812 10.7676 28.3554 10.7676 C 27.8538 10.7676 27.4037 10.6583 27.0049 10.4396 C 26.6127 10.221 26.304 9.92197 26.0789 9.54255 C 25.8538 9.16313 25.7413 8.72905 25.7413 8.24031 C 25.7413 7.75157 25.8474 7.31749 26.0596 6.93807 C 26.2783 6.55865 26.5773 6.25962 26.9567 6.04097 C 27.3361 5.82232 27.767 5.713 28.2493 5.713 C 28.7123 5.713 29.1207 5.82232 29.4744 6.04097 C 29.8345 6.25319 30.1175 6.54579 30.3232 6.91878 C 30.529 7.29177 30.6319 7.72263 30.6319 8.21137 V 8.26925 H 29.8988 V 8.21137 C 29.8988 7.83838 29.8249 7.51363 29.677 7.2371 C 29.5355 6.95415 29.3393 6.7355 29.0885 6.58116 C 28.8442 6.42039 28.5644 6.34001 28.2493 6.34001 C 27.902 6.34001 27.5966 6.42039 27.3329 6.58116 C 27.0693 6.74193 26.8635 6.96379 26.7156 7.24675 C 26.5677 7.52971 26.4937 7.85768 26.4937 8.23066 C 26.4937 8.60365 26.5741 8.93484 26.7349 9.22423 C 26.8956 9.51361 27.1143 9.73869 27.3908 9.89946 C 27.6738 10.0602 27.9985 10.1406 28.3651 10.1406 C 29.0339 10.1406 29.5708 9.84801 29.976 9.26281 ZM 30.6319 8.49111 H 26.3394 V 7.90269 H 30.4776 L 30.6319 8.21137 V 8.49111 ZM 36.107 10.6133 H 35.3932 V 7.87375 C 35.3932 7.36572 35.2774 6.98309 35.0459 6.72585 C 34.8144 6.46862 34.5025 6.34001 34.1102 6.34001 C 33.8273 6.34001 33.5604 6.41396 33.3096 6.56187 C 33.0588 6.70978 32.8562 6.94129 32.7019 7.2564 C 32.5475 7.57151 32.4704 7.97986 32.4704 8.48147 V 10.6133 H 31.7565 V 5.86734 H 32.4607 V 7.30463 H 32.3353 C 32.4125 6.91235 32.5443 6.60045 32.7308 6.36894 C 32.9237 6.13743 33.1488 5.97023 33.406 5.86734 C 33.6697 5.76445 33.9462 5.713 34.2356 5.713 C 34.8144 5.713 35.271 5.89306 35.6054 6.25319 C 35.9398 6.60688 36.107 7.12135 36.107 7.79658 V 10.6133 ZM 40.1582 10.6133 H 39.0393 C 38.7049 10.6133 38.4444 10.5232 38.2579 10.3432 C 38.0779 10.1567 37.9878 9.89625 37.9878 9.56184 V 4.47828 H 38.7017 V 9.50397 C 38.7017 9.65831 38.7435 9.78049 38.8271 9.87052 C 38.9107 9.95412 39.0329 9.99592 39.1936 9.99592 H 40.1582 V 10.6133 ZM 40.0907 6.47505 H 37.0039 V 5.86734 H 40.0907 V 6.47505 Z" fill="white"/>
<path d="M5.42608 24.3435L8.22047 26.0301L7.47892 22.8514L9.94775 20.7127L6.69667 20.4368L5.42608 17.439L4.1555 20.4368L0.904419 20.7127L3.37325 22.8514L2.6317 26.0301L5.42608 24.3435Z" fill="#00B578"/>
<path d="M16.278 24.3435L19.0724 26.0301L18.3308 22.8514L20.7997 20.7127L17.5486 20.4368L16.278 17.439L15.0074 20.4368L11.7563 20.7127L14.2252 22.8514L13.4836 26.0301L16.278 24.3435Z" fill="#00B578"/>
<path d="M27.13 24.3435L29.9244 26.0301L29.1828 22.8514L31.6517 20.7127L28.4006 20.4368L27.13 17.439L25.8594 20.4368L22.6083 20.7127L25.0772 22.8514L24.3356 26.0301L27.13 24.3435Z" fill="#00B578"/>
<path d="M37.9821 24.3435L40.7764 26.0301L40.0349 22.8514L42.5037 20.7127L39.2526 20.4368L37.9821 17.439L36.7115 20.4368L33.4604 20.7127L35.9292 22.8514L35.1877 26.0301L37.9821 24.3435Z" fill="#00B578"/>
<path d="M53.3556 20.7127L50.1046 20.4323L48.834 17.439L47.5634 20.4368L44.3123 20.7127L46.7811 22.8514L46.0396 26.0301L48.834 24.3435L51.6284 26.0301L50.8913 22.8514L53.3556 20.7127ZM48.834 23.498V19.2928L49.6072 21.1196L51.5877 21.2914L50.0865 22.5937L50.5387 24.5289L48.834 23.498Z" fill="#00B578"/>
</svg>
